<svg width="24" height="24" viewBox="0 0 24 24" fill="none" xmlns="http://www.w3.org/2000/svg">
<path fill-rule="evenodd" clip-rule="evenodd" d="M16.9497 7.05028C17.3403 7.4408 17.3403 8.07397 16.9497 8.46449L8.46446 16.9498C8.07394 17.3403 7.44077 17.3403 7.05025 16.9498C6.65972 16.5592 6.65972 15.9261 7.05025 15.5356L15.5355 7.05028C15.9261 6.65975 16.5592 6.65975 16.9497 7.05028Z" fill="#14142B"/>
<path fill-rule="evenodd" clip-rule="evenodd" d="M7.05025 7.05028C7.44077 6.65975 8.07394 6.65975 8.46446 7.05028L16.9497 15.5356C17.3403 15.9261 17.3403 16.5592 16.9497 16.9498C16.5592 17.3403 15.9261 17.3403 15.5355 16.9498L7.05025 8.46449C6.65972 8.07397 6.65972 7.4408 7.05025 7.05028Z" fill="#14142B"/>
</svg>
