<svg width="24" height="24" viewBox="0 0 24 24" fill="none" xmlns="http://www.w3.org/2000/svg">
<path fill-rule="evenodd" clip-rule="evenodd" d="M1 6C1 3.79086 2.79086 2 5 2H19C21.2091 2 23 3.79086 23 6V19C23 21.2091 21.2091 23 19 23H5C2.79086 23 1 21.2091 1 19V6ZM5 4C3.89543 4 3 4.89543 3 6V19C3 20.1046 3.89543 21 5 21H19C20.1046 21 21 20.1046 21 19V6C21 4.89543 20.1046 4 19 4H5Z" fill="#14142B"/>
<path fill-rule="evenodd" clip-rule="evenodd" d="M7 0C7.55228 0 8 0.447715 8 1V3C8 3.55228 7.55228 4 7 4C6.44772 4 6 3.55228 6 3V1C6 0.447715 6.44772 0 7 0Z" fill="#14142B"/>
<path fill-rule="evenodd" clip-rule="evenodd" d="M17 0C17.5523 0 18 0.447715 18 1V3C18 3.55228 17.5523 4 17 4C16.4477 4 16 3.55228 16 3V1C16 0.447715 16.4477 0 17 0Z" fill="#14142B"/>
<path fill-rule="evenodd" clip-rule="evenodd" d="M1 8C1 7.44772 1.44772 7 2 7H22C22.5523 7 23 7.44772 23 8C23 8.55228 22.5523 9 22 9H2C1.44772 9 1 8.55228 1 8Z" fill="#14142B"/>
<path fill-rule="evenodd" clip-rule="evenodd" d="M5.5 13C5.5 12.4477 5.94772 12 6.5 12H7.5C8.05228 12 8.5 12.4477 8.5 13C8.5 13.5523 8.05228 14 7.5 14H6.5C5.94772 14 5.5 13.5523 5.5 13Z" fill="#14142B"/>
<path fill-rule="evenodd" clip-rule="evenodd" d="M10.5 13C10.5 12.4477 10.9477 12 11.5 12H12.5C13.0523 12 13.5 12.4477 13.5 13C13.5 13.5523 13.0523 14 12.5 14H11.5C10.9477 14 10.5 13.5523 10.5 13Z" fill="#14142B"/>
<path fill-rule="evenodd" clip-rule="evenodd" d="M15.5 13C15.5 12.4477 15.9477 12 16.5 12H17.5C18.0523 12 18.5 12.4477 18.5 13C18.5 13.5523 18.0523 14 17.5 14H16.5C15.9477 14 15.5 13.5523 15.5 13Z" fill="#14142B"/>
<path fill-rule="evenodd" clip-rule="evenodd" d="M5.5 17C5.5 16.4477 5.94772 16 6.5 16H7.5C8.05228 16 8.5 16.4477 8.5 17C8.5 17.5523 8.05228 18 7.5 18H6.5C5.94772 18 5.5 17.5523 5.5 17Z" fill="#14142B"/>
<path fill-rule="evenodd" clip-rule="evenodd" d="M10.5 17C10.5 16.4477 10.9477 16 11.5 16H12.5C13.0523 16 13.5 16.4477 13.5 17C13.5 17.5523 13.0523 18 12.5 18H11.5C10.9477 18 10.5 17.5523 10.5 17Z" fill="#14142B"/>
<path fill-rule="evenodd" clip-rule="evenodd" d="M15.5 17C15.5 16.4477 15.9477 16 16.5 16H17.5C18.0523 16 18.5 16.4477 18.5 17C18.5 17.5523 18.0523 18 17.5 18H16.5C15.9477 18 15.5 17.5523 15.5 17Z" fill="#14142B"/>
</svg>
