<svg width="10" height="10" viewBox="0 0 10 10" fill="none" xmlns="http://www.w3.org/2000/svg">
<path fill-rule="evenodd" clip-rule="evenodd" d="M5.24618 8.95747C5.94936 8.33005 7.91668 6.3523 7.91668 3.86355C7.91668 2.3484 7.00522 0.833252 5.00001 0.833252C2.9948 0.833252 2.08334 2.3484 2.08334 3.86355C2.08334 6.3523 4.05066 8.33005 4.75384 8.95747C4.89628 9.08456 5.10374 9.08456 5.24618 8.95747ZM5.00001 4.99992C5.69037 4.99992 6.25001 4.44027 6.25001 3.74992C6.25001 3.05956 5.69037 2.49992 5.00001 2.49992C4.30965 2.49992 3.75001 3.05956 3.75001 3.74992C3.75001 4.44027 4.30965 4.99992 5.00001 4.99992Z" fill="#14142B"/>
</svg>
