<svg width="16" height="16" viewBox="0 0 16 16" fill="none" xmlns="http://www.w3.org/2000/svg">
<path fill-rule="evenodd" clip-rule="evenodd" d="M8.00001 14.6666C11.6819 14.6666 14.6667 11.6818 14.6667 7.99992C14.6667 4.31802 11.6819 1.33325 8.00001 1.33325C4.31811 1.33325 1.33334 4.31802 1.33334 7.99992C1.33334 11.6818 4.31811 14.6666 8.00001 14.6666ZM8.00001 7.33325C9.10458 7.33325 10 6.43782 10 5.33325C10 4.22868 9.10458 3.33325 8.00001 3.33325C6.89544 3.33325 6.00001 4.22868 6.00001 5.33325C6.00001 6.43782 6.89544 7.33325 8.00001 7.33325ZM4.00001 10.6666C4.50001 9.16659 7.00001 8.66659 8.00001 8.66659C9.00001 8.66659 11.5 9.16659 12 10.6666C11.5 12.1666 9.50001 12.6666 8.00001 12.6666C6.50001 12.6666 4.50001 12.1666 4.00001 10.6666Z" fill="#14142B"/>
</svg>
