<svg width="24" height="24" viewBox="0 0 24 24" fill="none" xmlns="http://www.w3.org/2000/svg">
<path fill-rule="evenodd" clip-rule="evenodd" d="M11.386 3.21065C11.7472 2.92978 12.2528 2.92978 12.6139 3.21065L21.6139 10.2106C22.0499 10.5497 22.1284 11.178 21.7893 11.6139C21.4503 12.0499 20.822 12.1284 20.386 11.7894L12 5.26686L3.61393 11.7894C3.17798 12.1284 2.5497 12.0499 2.21063 11.6139C1.87156 11.178 1.9501 10.5497 2.38604 10.2106L11.386 3.21065Z" fill="#14142B"/>
<path fill-rule="evenodd" clip-rule="evenodd" d="M4.99998 8.5C5.55227 8.5 5.99999 8.94772 5.99999 9.5V20H9.99998V17C9.99998 16.4477 10.4477 16 11 16H13C13.5523 16 14 16.4477 14 17V20H18V10C18 9.44772 18.4477 9 19 9C19.5523 9 20 9.44772 20 10V21C20 21.5523 19.5523 22 19 22H4.99998C4.4477 22 3.99998 21.5523 3.99998 21V9.5C3.99998 8.94772 4.4477 8.5 4.99998 8.5Z" fill="#14142B"/>
</svg>
