<svg width="24" height="24" viewBox="0 0 24 24" fill="none" xmlns="http://www.w3.org/2000/svg">
<path fill-rule="evenodd" clip-rule="evenodd" d="M19.4985 6C19.4985 5.60218 19.3405 5.22064 19.0592 4.93934C18.7779 4.65804 18.3963 4.5 17.9985 4.5H16.4985C16.4985 4.10218 16.3405 3.72064 16.0592 3.43934C15.7779 3.15804 15.3963 3 14.9985 3H13.4985C13.4985 2.1705 12.8295 1.5 12.0015 1.5H7.5135C1.5285 1.5 0.0315 5.1705 0.0315 6V10.5C0.0315 13.4745 2.157 13.5 3 13.5L0 21C0 21.3978 0.158035 21.7794 0.43934 22.0607C0.720644 22.342 1.10218 22.5 1.5 22.5H7.5C7.89782 22.5 8.27936 22.342 8.56066 22.0607C8.84196 21.7794 9 21.3978 9 21C9 21 3 21 9 13.5H9.0105C9.8385 13.5 13.5 13.5 13.5 10.5H15C15.3978 10.5 15.7794 10.342 16.0607 10.0607C16.342 9.77936 16.5 9.39782 16.5 9H18C18.3978 9 18.7794 8.84196 19.0607 8.56066C19.342 8.27936 19.5 7.89782 19.5 7.5H24V6H19.4985ZM4.4985 6H5.9985V10.5H4.4985V6ZM1.4985 6H2.9985V10.5H1.4985V6Z" fill="#6E7191"/>
</svg>
