<svg width="24" height="24" viewBox="0 0 24 24" fill="none" xmlns="http://www.w3.org/2000/svg">
<path d="M4.86003 4.03003L2.03003 6.86003L5.21003 10.04V12.87L6.63003 14.28L12.28 8.63003L10.87 7.21003H8.04003L4.86003 4.03003ZM17 6.00003V7.50003C18 7.50003 18.85 8.33003 18.85 9.35003C18.85 10.37 18 11.2 17 11.2V12.7C19.24 12.7 21 14.53 21 16.77V21H22.5V16.76C22.5 14.54 21.22 12.62 19.35 11.73C19.97 11.12 20.35 10.28 20.35 9.35003C20.35 7.50003 18.85 6.00003 17 6.00003ZM11.93 11.1L9.10003 13.93L14.05 18.88L14.76 18.17L16.88 20.29L19 21L18.29 18.88L16.17 16.76L16.88 16.05L11.93 11.1Z" fill="#6E7191"/>
</svg>
